# xmcd
# 
# Track frame offsets:
#     150
#     25217
#     47257
#     72110
#     91062
#     102660
#     120700
#     141417
#     158297
#     170387
#     187684
# 
# Disc length: 2695
# 
# Revision: 1
# Processed by: cddbd v1.5.2PL0 Copyright (c) Steve Scherf et al.
# Submitted via: fre:ac v1.0.31
# 
DISCID=800a850b
DTITLE=Andy J. Forest - Sunday Rhumba
DYEAR=2001
DGENRE=Blues
TTITLE0=Hurricane Georges
TTITLE1=Take A Look
TTITLE2=What Pepole Want
TTITLE3=Sunday Rhumba
TTITLE4=Time In My Pocket
TTITLE5=Waiting
TTITLE6=If You're So Rich
TTITLE7=She Loved Me
TTITLE8=About Du Souffle
TTITLE9=My Life Is A Vacation
TTITLE10=Far Harpaway
EXTD=YEAR: 2001
EXTT0=
EXTT1=
EXTT2=
EXTT3=
EXTT4=
EXTT5=
EXTT6=
EXTT7=
EXTT8=
EXTT9=
EXTT10=
PLAYORDER=
